<svg xmlns:dc="http://purl.org/dc/elements/1.1/" xmlns:cc="http://creativecommons.org/ns#" xmlns:rdf="http://www.w3.org/1999/02/22-rdf-syntax-ns#" xmlns:svg="http://www.w3.org/2000/svg" xmlns="http://www.w3.org/2000/svg" xmlns:sodipodi="http://sodipodi.sourceforge.net/DTD/sodipodi-0.dtd" xmlns:inkscape="http://www.inkscape.org/namespaces/inkscape" version="1.1" sodipodi:docname="noun_1101884_cc.svg" width="90.27272727272725" height="140" inkscape:version="0.92.1 r15371"><rect id="backgroundrect" width="100%" height="100%" x="0" y="0" fill="none" stroke="none"/>
  <metadata id="metadata20">
    <rdf:RDF>
      <cc:Work rdf:about="">
        <dc:format>image/svg+xml</dc:format>
        <dc:type rdf:resource="http://purl.org/dc/dcmitype/StillImage"/>
        <dc:title/>
      </cc:Work>
    </rdf:RDF>
  </metadata>
  <defs id="defs18"/>
  <sodipodi:namedview pagecolor="#ffffff" bordercolor="#666666" borderopacity="1" objecttolerance="10" gridtolerance="10" guidetolerance="10" inkscape:pageopacity="0" inkscape:pageshadow="2" inkscape:window-width="640" inkscape:window-height="480" id="namedview16" showgrid="false" fit-margin-top="10" fit-margin-left="10" fit-margin-bottom="10" fit-margin-right="10" inkscape:zoom="1.888" inkscape:cx="54" inkscape:cy="65.519609" inkscape:window-x="0" inkscape:window-y="0" inkscape:window-maximized="0" inkscape:current-layer="svg14"/>
  
<g class="currentLayer" style=""><title>Layer 1</title><g id="g8" class="">
    <path style="color:#000000;text-indent:0;text-transform:none;direction:ltr;baseline-shift:baseline;display:inline;overflow:visible;visibility:visible;fill:#000000;fill-opacity:1;fill-rule:evenodd;stroke:none;enable-background:accumulate" d="m44.88663484711672,42.779305167365735 c-9.38079811665504,0 -17.085777251641225,7.609919618760622 -17.085777251641225,17.022746747760316 a1.8039000766591025,1.8563565217695948 0 1 0 3.6075205495053324,0 c0,-7.331466836627138 5.9787412722219155,-13.310330720522071 13.478256702135894,-13.310330720522071 c3.7420009640192315,0 7.504836921836392,1.5688865103746883 10.085760504207448,3.9986933325496823 c2.580833387592709,2.429806822174994 3.965864403874027,5.563273106560706 3.408190089360652,9.00649954755111 a1.8039000766591025,1.8563565217695948 0 0 0 0,0.0018563518808898927 c-1.2046414595892998,7.488736967976129 -4.477809965765975,8.739249849018798 -8.230544108408381,11.110006117862683 c-1.8764121687103765,1.1853734935422409 -3.9069672136140827,2.616435158520259 -5.287939464869831,5.098006352893867 c-1.3810624460340941,2.481571194373609 -2.017476802043535,5.838876388557024 -1.6567878834378442,10.644692955398824 a1.8039000766591025,1.8563565217695948 0 1 0 3.5967873708821574,-0.2860638248451326 c-0.3261443184991695,-4.345998205945373 0.26400011621876923,-6.84882462935517 1.1905710741673228,-8.513972266513404 c0.9265709579485534,-1.6650548195641894 2.2846337355044146,-2.666835112086421 4.04469464014844,-3.7787898887394658 c3.5198512249530114,-2.2235382829299133 8.511230258621165,-5.024309183222539 9.901943545938282,-13.665636470524394 c0,-0.0006775684365248111 0,-0.0009281759404449467 0,-0.0018563518808898927 c0.7793730796878661,-4.816759761179645 -1.2519937182209546,-9.26596184994309 -4.531656248438543,-12.353734032780698 c-3.2802036988876644,-3.088189862010808 -7.822953905062769,-4.97211785009132 -12.521019519549698,-4.97211785009132 z" marker="none" visibility="visible" display="inline" overflow="visible" id="path2" inkscape:connector-curvature="0" stroke-width="0"/>
    <path style="color:#000000;text-indent:0;text-transform:none;direction:ltr;baseline-shift:baseline;display:inline;overflow:visible;visibility:visible;fill:#000000;fill-opacity:1;fill-rule:evenodd;stroke:none;enable-background:accumulate" d="m44.958429890680144,91.3971330825939 c-1.9651638306028498,0 -3.599312824675846,1.6946636320643838 -3.599312824675846,3.7127037617797853 c0,2.0176688593392247 1.623325620671475,3.712425308997652 3.599312824675846,3.712425308997652 c1.9759872040043711,0 3.5996736037892294,-1.6835255207790436 3.5996736037892294,-3.712425308997652 c0,-2.0291782410007415 -1.6345999679647256,-3.7127037617797853 -3.5996736037892294,-3.7127037617797853 z" marker="none" visibility="visible" display="inline" overflow="visible" id="path4" inkscape:connector-curvature="0" stroke-width="0"/>
    <path style="color:#000000;text-indent:0;text-transform:none;direction:ltr;baseline-shift:baseline;display:inline;overflow:visible;visibility:visible;fill:#000000;fill-opacity:1;fill-rule:evenodd;stroke:none;enable-background:accumulate" d="m44.958429890680144,29.636333850665338 c-21.900103935416162,0 -39.68570238204929,18.390878083976165 -39.68570238204929,41.01606696298397 c0,22.625216724286012 17.786139615303213,41.006534596075596 39.68570238204929,41.006534596075596 c21.899562766746087,0 39.685702472244074,-18.381317871789584 39.685702472244074,-41.006534596075596 c0,-22.6251981607672 -17.785598536827912,-41.01606696298397 -39.685702472244074,-41.01606696298397 zm0,3.712416027238248 c19.94152432363257,0 36.07827211751709,16.675905962334852 36.07827211751709,37.30365093574572 c0,20.62778210044849 -16.136206625214438,37.294109287077944 -36.07827211751709,37.294109287077944 c-19.942065492302646,0 -36.0781821031283,-16.666327186629456 -36.0781821031283,-37.294109287077944 C8.880247787551838,50.02464655847905 25.016905567047562,33.34874987790353 44.958429890680144,33.34874987790353 z" marker="none" visibility="visible" display="inline" overflow="visible" id="path6" inkscape:connector-curvature="0" stroke-width="0"/>
  </g></g></svg>