<?xml version="1.0" encoding="iso-8859-1"?>
<!-- Generator: Adobe Illustrator 19.0.0, SVG Export Plug-In . SVG Version: 6.00 Build 0)  -->
<svg version="1.1" id="Layer_1" xmlns="http://www.w3.org/2000/svg" xmlns:xlink="http://www.w3.org/1999/xlink" x="0px" y="0px"
	 viewBox="0 0 512 512" style="enable-background:new 0 0 512 512;" xml:space="preserve">
<path style="fill:#BF655F;" d="M307.162,153.591c0.009-2.347-0.614-4.625-1.783-6.579l-49.374-82.295L287.151,12.8h132.258
	l-90.641,151.074l-21.598,8.678L307.162,153.591z"/>
<path style="fill:#FEDEA1;" d="M256.004,499.2c-81.169,0-147.2-66.031-147.2-147.2s66.031-147.2,147.2-147.2
	s147.2,66.031,147.2,147.2S337.173,499.2,256.004,499.2z"/>
<polygon style="fill:#FF877F;" points="184.751,166.4 92.599,12.8 224.858,12.8 317.009,166.4 "/>
<g>
	<path style="fill:#573A32;" d="M247.061,250.01c-0.802,15.753-5.734,27.076-14.797,33.997c-7.74,5.871-19.072,8.798-33.997,8.798
		c-6.135,0-9.071,3.072-8.798,9.199c0.265,6.153,3.601,9.199,10.001,9.199h43.998V425.6h-25.865c-7.074,0-12.8,5.726-12.8,12.8
		s5.726,12.8,12.8,12.8h76.8c7.074,0,12.8-5.726,12.8-12.8s-5.726-12.8-12.8-12.8h-26.146V250.01
		c0-6.929-3.473-10.249-10.402-10.001C250.927,240.282,247.326,243.61,247.061,250.01z"/>
	<path style="fill:#573A32;" d="M341.952,166.767l76.8-128c4.745-7.91,4.873-17.758,0.324-25.788C414.537,4.958,406.029,0,396.804,0
		h-102.4c-8.994,0-17.323,4.719-21.948,12.425l-16.452,27.418l-16.452-27.418C234.927,4.719,226.598,0,217.604,0h-102.4
		c-9.225,0-17.732,4.958-22.281,12.988c-4.548,8.03-4.42,17.877,0.324,25.788l76.8,128c2.27,3.789,5.453,6.827,9.148,8.969v35.968
		c-49.536,27.221-83.2,79.898-83.2,140.297C96.004,440.226,167.778,512,256.004,512s160-71.774,160-160
		c0-60.407-33.664-113.075-83.2-140.297v-35.968C336.499,173.594,339.682,170.556,341.952,166.767z M115.204,25.6h102.4l76.8,128
		h-102.4L115.204,25.6z M307.204,179.2v21.35c-16.102-5.461-33.28-8.55-51.2-8.55s-35.098,3.089-51.2,8.55V179.2H307.204z
		 M390.404,352c0,74.223-60.177,134.4-134.4,134.4s-134.4-60.177-134.4-134.4c0-74.232,60.177-134.4,134.4-134.4
		S390.404,277.769,390.404,352z M320.004,153.6l-0.043,0.017c0.009-4.565-1.169-9.131-3.61-13.193l-45.423-75.708L294.404,25.6
		h102.4L320.004,153.6z"/>
</g>
<g>
</g>
<g>
</g>
<g>
</g>
<g>
</g>
<g>
</g>
<g>
</g>
<g>
</g>
<g>
</g>
<g>
</g>
<g>
</g>
<g>
</g>
<g>
</g>
<g>
</g>
<g>
</g>
<g>
</g>
</svg>
